<?xml version="1.0" encoding="utf-8"?>
<!-- Generator: Adobe Illustrator 25.2.2, SVG Export Plug-In . SVG Version: 6.00 Build 0)  -->
<svg version="1.1" id="Layer_1" xmlns="http://www.w3.org/2000/svg" xmlns:xlink="http://www.w3.org/1999/xlink" x="0px" y="0px"
	 viewBox="0 0 512 512" style="enable-background:new 0 0 512 512;" xml:space="preserve">
<style type="text/css">
	.st0{fill:#006C66;}
	.st1{fill:#00B1EA;}
	.st2{fill:#C6D325;}
</style>
<g>
	<path class="st0" d="M120.5,228.997c1.447-6.351,4.628-11.873,15.749-11.873c6.928,0,10.409,7.269,8.962,13.614
		c-1.447,6.351-6.998,10.762-13.896,11.226C118.894,242.805,119.059,235.348,120.5,228.997 M43.132,178.687
		c5.828,3.711,14.667,6.087,17.078-0.382c2.411-6.475,4.44-12.473-8.345-23.059c-5.328-4.405-13.685,0.888-16.09,7.363
		C33.364,169.078,33.84,172.777,43.132,178.687 M442.716,268.569c-10.144-11.309-13.496-12.732-17.654-7.204
		c-4.152,5.51-2.893,23.041,2.629,27.193c5.504,4.152,13.344,3.04,17.495-2.476C449.338,280.56,447.333,273.709,442.716,268.569
		 M443.028,326.695c-15.743,41.765-45.429,78.55-87.007,102.549c-9.545,5.504-19.366,10.097-29.351,13.879
		c-0.018,0.012-17.79,6.192-19.724,33.779c-1.694,24.141,13.238,20.783,13.238,20.783C299.7,503.113,278.188,506,256,506
		C117.93,506,6,394.071,6,256.008c0-22.588,2.993-44.476,8.615-65.289c0,0,4.552-14.578,24.605-1.047
		c22.935,15.467,19.395,33.95,19.395,33.973c-1.723,10.538-2.652,21.341-2.652,32.362c0,48.005,17.007,92.105,45.3,126.619
		c5.904,5.887,13.479,8.339,33.097,1.053c24.5-9.103,8.468-29.28,8.468-29.28c-15.125-17.372-26.323-38.249-32.198-61.231
		c-3.581-13.344-2.846-37.196,12.491-41.183c13.361-3.476,30.78,9.415,36.191,29.657c2.346,8.868,5.893,17.254,10.438,24.976
		c6.998,11.326,19.413,15.255,36.708,8.921c16.502-6.051,13.549-22.241,6.563-33.991c-7.48-12.555-2.935-27.987,9.015-34.891
		c11.956-6.898,27.046-2.593,33.956,9.35H256c-6.881,11.956-3.064,27.181,8.886,34.085c11.95,6.892,27.593,3.111,34.732-9.639
		c6.681-11.932,19.224-22.582,32.715-11.315c14.126,11.815,16.937,24.529,10.627,36.249c-4.417,7.798-9.903,15.061-16.408,21.53
		c-14.831,14.808-17.278,36.332-7.592,46.17c11.121,11.291,32.15-0.006,41.913-9.768c16.966-16.59,29.445-36.72,36.932-58.508
		c0,0,9.451-23.97,29.586-7.304C443.51,310.858,445.175,318.644,443.028,326.695 M166.829,399.734
		c-2.705-6.351-18.507-14.026-24.858-11.326c-6.351,2.699-9.315,10.039-6.61,16.396c2.705,6.351,9.639,8.045,16.402,6.616
		C166.629,408.291,169.534,406.091,166.829,399.734 M295.478,479.013c0.3-6.904-2.058-15.749-8.868-14.602
		c-6.816,1.153-13.026,2.388-15.796,18.766c-1.153,6.81,7.61,11.397,14.414,10.25C292.038,492.268,295.008,490.01,295.478,479.013
		 M306.187,371.001c-3.858-5.74-10.45-8.345-16.666-6.416c-6.228,1.923-10.774,8.568-7.316,14.567
		c5.563,9.633,11.938,9.627,18.154,7.704C306.587,384.92,313.126,381.339,306.187,371.001 M322.989,310.211
		c5.269-4.828,11.244-12.544,9.75-19.124c-1.494-6.569-9.309-14.79-15.643-10.615c-5.946,3.922-11.15,14.32-9.662,20.894
		C308.927,307.941,316.796,315.898,322.989,310.211 M187.247,304.918c6.439,1.994,17.466-0.665,17.019-8.239
		c-0.429-7.104-6.828-16.825-13.261-18.819c-6.445-1.988-17.272,0.847-15.443,9.051
		C177.109,293.886,180.808,302.919,187.247,304.918"/>
	<path class="st1" d="M433.178,79.626c0.041,0.047,10.362,11.226-11.338,21.806c-24.864,12.126-39.102-0.176-39.119-0.188
		c-8.268-6.757-17.154-12.967-26.699-18.483c-41.572-24-88.277-31.321-132.307-24.07c-8.051,2.164-13.961,7.498-17.46,28.134
		c-4.369,25.77,21.118,21.971,21.118,21.971c22.612-4.411,46.288-3.67,69.129,2.729c13.344,3.576,33.638,16.137,29.422,31.409
		c-3.676,13.314-23.541,21.953-43.783,16.513c-8.851-2.393-17.884-3.517-26.852-3.44c-13.297,0.4-22.906,9.18-26.07,27.328
		c-3.017,17.313,12.479,22.853,26.146,22.67c14.614-0.194,25.711,11.462,25.711,25.258c0,13.802-11.279,24.723-25.076,24.735v0.006
		c-6.881,11.962-3.064,27.187,8.886,34.085c11.95,6.898,27.599,3.117,34.732-9.633c6.681-11.938,19.224-22.582,32.715-11.315
		c14.126,11.814,16.937,24.529,10.627,36.249c-4.411,7.798-9.903,15.055-16.408,21.53c-14.831,14.808-17.278,36.332-7.592,46.176
		c11.121,11.285,32.15-0.012,41.913-9.78c16.966-16.584,29.445-36.72,36.932-58.502c0,0,9.451-23.97,29.586-7.304
		c16.119,13.349,17.784,21.136,15.637,29.186c-15.743,41.765-45.429,78.544-87.007,102.543
		c-9.545,5.516-19.366,10.103-29.351,13.885c-0.018,0.012-17.79,6.192-19.724,33.779c-1.694,24.135,13.238,20.783,13.238,20.783
		C427.156,469.357,506,371.889,506,256.002C506,187.168,478.19,124.837,433.178,79.626 M269.567,188.785
		c-4.946,4.575-16.549,5.257-22.918,2.07c-6.792-3.393-3.576-14.273,1.37-18.854c4.946-4.575,14.62-3.258,21.436-1.111
		C277.477,173.413,274.519,184.198,269.567,188.785 M349.552,171.731c-3.464,6.004-11.497,5.387-16.272,0.953
		c-4.775-4.416-5.822-11.432-2.782-17.642c5.487-11.179,11.862-7.304,16.637-2.882C351.916,156.588,355.11,162.104,349.552,171.731
		 M429.396,110.312c9.762-5.087,13.202-3.652,17.607,1.67c4.399,5.322,4.799,15.202-1.67,17.607
		c-15.561,5.793-19.742,1.029-24.147-4.293C416.788,119.974,423.268,113.505,429.396,110.312 M445.186,286.083
		c-4.152,5.516-11.991,6.628-17.495,2.476c-5.522-4.152-6.781-21.682-2.629-27.193c4.158-5.528,7.51-4.111,17.654,7.204
		C447.333,273.709,449.338,280.561,445.186,286.083 M433.172,79.62l0.006,0.006C433.178,79.626,433.172,79.626,433.172,79.62
		 M270.814,483.171c2.77-16.372,8.98-17.607,15.796-18.76c6.81-1.147,9.168,7.698,8.868,14.596
		c-0.47,10.997-3.44,13.267-10.25,14.42C278.424,494.574,269.661,489.987,270.814,483.171 M300.359,386.85
		c6.228-1.923,12.767-5.51,5.834-15.849c-3.864-5.74-10.456-8.345-16.672-6.422c-6.228,1.923-10.774,8.568-7.316,14.573
		C287.774,388.785,294.143,388.779,300.359,386.85 M322.989,310.211c5.269-4.828,11.244-12.55,9.75-19.124
		c-1.494-6.569-9.309-14.79-15.643-10.609c-5.946,3.917-11.15,14.314-9.656,20.883C308.927,307.936,316.796,315.898,322.989,310.211
		 M173.527,88.018c-4.728,14.449-4.275,18.06,2.582,18.895c6.851,0.835,21.4-9.009,22.241-15.866
		c0.841-6.851-4.04-13.085-10.897-13.926C180.602,76.291,175.668,81.455,173.527,88.018"/>
	<path class="st2" d="M347.135,152.161c4.781,4.428,7.974,9.939,2.417,19.571c-3.464,6.004-11.497,5.387-16.272,0.953
		c-4.775-4.422-5.822-11.432-2.782-17.642C335.985,143.863,342.36,147.739,347.135,152.161 M141.971,388.41
		c-6.351,2.699-9.315,10.039-6.61,16.396c2.705,6.351,9.639,8.039,16.402,6.616c14.867-3.129,17.772-5.328,15.067-11.685
		C164.124,393.385,148.322,385.711,141.971,388.41 M447.003,111.984c-4.405-5.322-7.845-6.757-17.607-1.67
		c-6.128,3.193-12.608,9.656-8.21,14.984c4.405,5.322,8.586,10.08,24.147,4.293C451.802,127.185,451.402,117.306,447.003,111.984
		 M421.839,101.433c-24.864,12.126-39.102-0.176-39.119-0.188c-8.268-6.763-17.154-12.967-26.699-18.483
		c-41.572-24-88.277-31.321-132.307-24.076c-8.051,2.17-13.961,7.504-17.46,28.14c-4.369,25.764,21.118,21.971,21.118,21.971
		c22.612-4.411,46.288-3.67,69.129,2.729c13.344,3.576,33.638,16.137,29.422,31.409c-3.676,13.308-23.541,21.953-43.783,16.513
		c-8.851-2.394-17.884-3.517-26.852-3.446c-13.297,0.406-22.906,9.186-26.07,27.334c-3.017,17.313,12.479,22.847,26.146,22.67
		c14.614-0.194,25.711,11.456,25.711,25.258S269.796,255.981,256,255.998l-0.006,0.006c-6.91-11.938-22-16.249-33.956-9.35
		c-11.95,6.904-16.496,22.335-9.015,34.897c6.986,11.75,9.939,27.94-6.563,33.985c-17.296,6.334-29.71,2.405-36.708-8.915
		c-4.546-7.727-8.092-16.113-10.438-24.976c-5.41-20.248-22.829-33.132-36.191-29.657c-15.337,3.981-16.072,27.84-12.491,41.183
		c5.875,22.982,17.072,43.859,32.198,61.231c0,0,16.031,20.171-8.468,29.275c-19.618,7.286-27.193,4.834-33.097-1.053
		c-28.293-34.514-45.3-78.614-45.3-126.619c0-11.021,0.929-21.824,2.652-32.362c0-0.024,3.54-18.501-19.395-33.967
		c-20.054-13.538-24.605,1.047-24.605,1.047C43.32,84.309,140.518,6,256,6c69.241,0,131.901,28.151,177.172,73.622
		C433.172,79.622,443.587,90.83,421.839,101.433 M51.865,155.243c-5.328-4.405-13.685,0.894-16.09,7.363
		c-2.411,6.475-1.935,10.174,7.357,16.084c5.828,3.711,14.667,6.087,17.078-0.388C62.621,171.832,64.649,165.828,51.865,155.243
		 M136.249,217.126c-11.121,0-14.296,5.516-15.749,11.867c-1.441,6.351-1.605,13.814,10.815,12.967
		c6.898-0.465,12.45-4.875,13.896-11.226C146.658,224.389,143.176,217.126,136.249,217.126 M176.109,106.914
		c6.851,0.835,21.4-9.015,22.241-15.872c0.835-6.851-4.04-13.079-10.897-13.92c-6.851-0.829-11.785,4.334-13.932,10.897
		C168.799,102.468,169.252,106.079,176.109,106.914 M204.266,296.676c-0.429-7.104-6.828-16.819-13.261-18.813
		c-6.445-1.994-17.272,0.847-15.443,9.051c1.547,6.975,5.246,16.008,11.685,18.007C193.687,306.908,204.713,304.25,204.266,296.676
		 M248.02,172.003c-4.946,4.575-8.163,15.461-1.37,18.854c6.369,3.187,17.972,2.505,22.918-2.07
		c4.952-4.587,7.91-15.378-0.112-17.895C262.639,168.739,252.965,167.428,248.02,172.003"/>
</g>
</svg>
